<svg width="6" height="10" viewBox="0 0 6 10" fill="none" xmlns="http://www.w3.org/2000/svg">
<path d="M5.25835 0.591726C5.18126 0.514473 5.08968 0.453183 4.98887 0.411366C4.88806 0.369548 4.77999 0.348022 4.67085 0.348022C4.56171 0.348022 4.45364 0.369548 4.35283 0.411366C4.25202 0.453183 4.16045 0.514473 4.08335 0.591726L0.258352 4.41673C0.181099 4.49382 0.119809 4.58539 0.0779915 4.68621C0.0361736 4.78702 0.0146484 4.89509 0.0146484 5.00423C0.0146484 5.11337 0.0361736 5.22144 0.0779915 5.32225C0.119809 5.42306 0.181099 5.51463 0.258352 5.59173L4.08335 9.41673C4.1605 9.49388 4.2521 9.55508 4.3529 9.59683C4.4537 9.63859 4.56174 9.66008 4.67085 9.66008C4.77996 9.66008 4.888 9.63859 4.9888 9.59683C5.08961 9.55508 5.1812 9.49388 5.25835 9.41673C5.3355 9.33957 5.3967 9.24798 5.43846 9.14718C5.48021 9.04638 5.5017 8.93833 5.5017 8.82923C5.5017 8.72012 5.48021 8.61208 5.43846 8.51127C5.3967 8.41047 5.3355 8.31888 5.25835 8.24173L2.02502 5.00006L5.25835 1.76673C5.58335 1.44173 5.57502 0.908393 5.25835 0.591726Z" fill="black"/>
</svg>
