<svg width="16" height="18" viewBox="0 0 16 18" fill="none" xmlns="http://www.w3.org/2000/svg">
<path d="M2.16667 17.3334C1.70833 17.3334 1.31583 17.17 0.989168 16.8434C0.662501 16.5167 0.499446 16.1245 0.500001 15.6667V4.00002C0.500001 3.54169 0.663335 3.14919 0.990001 2.82252C1.31667 2.49585 1.70889 2.3328 2.16667 2.33335H3V1.47919C3 1.24308 3.08 1.04863 3.24 0.895854C3.4 0.743076 3.59778 0.666687 3.83333 0.666687C4.06945 0.666687 4.2675 0.746687 4.4275 0.906687C4.5875 1.06669 4.66722 1.26446 4.66667 1.50002V2.33335H11.3333V1.47919C11.3333 1.24308 11.4133 1.04863 11.5733 0.895854C11.7333 0.743076 11.9311 0.666687 12.1667 0.666687C12.4028 0.666687 12.6008 0.746687 12.7608 0.906687C12.9208 1.06669 13.0006 1.26446 13 1.50002V2.33335H13.8333C14.2917 2.33335 14.6842 2.49669 15.0108 2.82335C15.3375 3.15002 15.5006 3.54224 15.5 4.00002V15.6667C15.5 16.125 15.3367 16.5175 15.01 16.8442C14.6833 17.1709 14.2911 17.3339 13.8333 17.3334H2.16667ZM2.16667 15.6667H13.8333V7.33335H2.16667V15.6667ZM2.16667 5.66669H13.8333V4.00002H2.16667V5.66669Z" fill="black"/>
</svg>
