<svg width="19" height="19" viewBox="0 0 19 19" fill="none" xmlns="http://www.w3.org/2000/svg">
<path d="M3.76358 15.532C4.27052 14.3377 5.4541 13.5 6.83333 13.5H11.8333C13.2126 13.5 14.3961 14.3377 14.9031 15.532M12.6667 7.25C12.6667 9.09095 11.1743 10.5833 9.33333 10.5833C7.49238 10.5833 6 9.09095 6 7.25C6 5.40905 7.49238 3.91667 9.33333 3.91667C11.1743 3.91667 12.6667 5.40905 12.6667 7.25ZM17.6667 9.33333C17.6667 13.9357 13.9357 17.6667 9.33333 17.6667C4.73096 17.6667 1 13.9357 1 9.33333C1 4.73096 4.73096 1 9.33333 1C13.9357 1 17.6667 4.73096 17.6667 9.33333Z" stroke="black" stroke-width="2" stroke-linecap="round" stroke-linejoin="round"/>
</svg>
