<svg width="14" height="19" viewBox="0 0 14 19" fill="none" xmlns="http://www.w3.org/2000/svg">
<path d="M12.25 0.5625H9.12501C8.87637 0.5625 8.63791 0.661272 8.4621 0.837087C8.28628 1.0129 8.18751 1.25136 8.18751 1.5C8.18751 1.74864 8.28628 1.9871 8.4621 2.16291C8.63791 2.33873 8.87637 2.4375 9.12501 2.4375H9.98438L8.76251 3.66172C8.13684 3.1418 7.40014 2.77251 6.60919 2.58233C5.81824 2.39214 4.99418 2.38614 4.20055 2.56479C3.40691 2.74343 2.6649 3.10195 2.03173 3.6127C1.39856 4.12345 0.891149 4.77279 0.548609 5.51065C0.206069 6.24851 0.0375558 7.05518 0.0560626 7.86846C0.0745694 8.68174 0.279602 9.47991 0.655351 10.2014C1.0311 10.9229 1.56753 11.5485 2.22327 12.0299C2.87902 12.5114 3.63657 12.8358 4.43751 12.9781V13.6875H2.87501C2.62637 13.6875 2.38791 13.7863 2.2121 13.9621C2.03628 14.1379 1.93751 14.3764 1.93751 14.625C1.93751 14.8736 2.03628 15.1121 2.2121 15.2879C2.38791 15.4637 2.62637 15.5625 2.87501 15.5625H4.43751V17.125C4.43751 17.3736 4.53628 17.6121 4.7121 17.7879C4.88791 17.9637 5.12637 18.0625 5.37501 18.0625C5.62365 18.0625 5.8621 17.9637 6.03792 17.7879C6.21374 17.6121 6.31251 17.3736 6.31251 17.125V15.5625H7.87501C8.12365 15.5625 8.36211 15.4637 8.53792 15.2879C8.71374 15.1121 8.81251 14.8736 8.81251 14.625C8.81251 14.3764 8.71374 14.1379 8.53792 13.9621C8.36211 13.7863 8.12365 13.6875 7.87501 13.6875H6.31251V12.9781C7.15154 12.8285 7.94219 12.4789 8.61757 11.9591C9.29295 11.4392 9.8332 10.7644 10.1926 9.99161C10.552 9.21882 10.72 8.37084 10.6824 7.5194C10.6448 6.66795 10.4027 5.83809 9.97657 5.1L11.3125 3.76562V4.625C11.3125 4.87364 11.4113 5.1121 11.5871 5.28791C11.7629 5.46373 12.0014 5.5625 12.25 5.5625C12.4986 5.5625 12.7371 5.46373 12.9129 5.28791C13.0887 5.1121 13.1875 4.87364 13.1875 4.625V1.5C13.1875 1.25136 13.0887 1.0129 12.9129 0.837087C12.7371 0.661272 12.4986 0.5625 12.25 0.5625ZM5.37501 11.1875C4.69514 11.1875 4.03053 10.9859 3.46524 10.6082C2.89994 10.2305 2.45935 9.6936 2.19917 9.06547C1.939 8.43735 1.87092 7.74619 2.00356 7.07938C2.1362 6.41257 2.46359 5.80006 2.94433 5.31932C3.42507 4.83858 4.03758 4.51119 4.70438 4.37855C5.37119 4.24591 6.06236 4.31399 6.69048 4.57416C7.3186 4.83434 7.85547 5.27493 8.23318 5.84023C8.6109 6.40552 8.81251 7.07013 8.81251 7.75C8.81147 8.66136 8.44898 9.53511 7.80455 10.1795C7.16011 10.824 6.28637 11.1865 5.37501 11.1875Z" fill="black"/>
</svg>
