<svg width="6" height="10" viewBox="0 0 6 10" fill="none" xmlns="http://www.w3.org/2000/svg">
<path d="M0.258005 9.41639C0.3351 9.49364 0.426674 9.55493 0.527485 9.59675C0.628296 9.63857 0.736365 9.66009 0.845505 9.66009C0.954646 9.66009 1.06271 9.63857 1.16353 9.59675C1.26434 9.55493 1.35591 9.49364 1.43301 9.41639L5.25801 5.59139C5.33526 5.5143 5.39655 5.42272 5.43837 5.32191C5.48018 5.2211 5.50171 5.11303 5.50171 5.00389C5.50171 4.89475 5.48018 4.78668 5.43837 4.68587C5.39655 4.58506 5.33526 4.49349 5.25801 4.41639L1.43301 0.591391C1.35585 0.51424 1.26426 0.453039 1.16346 0.411285C1.06266 0.369531 0.954615 0.348041 0.845506 0.348041C0.736397 0.348041 0.628357 0.369531 0.527553 0.411285C0.42675 0.453039 0.335158 0.51424 0.258006 0.591391C0.180854 0.668542 0.119655 0.760134 0.0779007 0.860938C0.0361464 0.961741 0.0146554 1.06978 0.0146554 1.17889C0.0146554 1.288 0.0361464 1.39604 0.0779006 1.49684C0.119655 1.59765 0.180854 1.68924 0.258006 1.76639L3.49134 5.00806L0.258005 8.24139C-0.0669946 8.56639 -0.0586614 9.09972 0.258005 9.41639Z" fill="black"/>
</svg>
