<svg width="18" height="18" viewBox="0 0 18 18" fill="none" xmlns="http://www.w3.org/2000/svg">
<path d="M6.94875 16.2308L6.24164 16.9379L6.94877 17.6451L7.65587 16.9379L6.94875 16.2308ZM1.64542 10.9275L0.938291 10.2204L0.231221 10.9275L0.938309 11.6346L1.64542 10.9275ZM8.83417 0.792448C8.44364 0.401934 7.81047 0.40195 7.41996 0.792484C7.02944 1.18302 7.02946 1.81618 7.41999 2.2067L8.83417 0.792448ZM15.67 10.4563C16.0605 10.8468 16.6937 10.8468 17.0842 10.4562C17.4747 10.0657 17.4747 9.43255 17.0842 9.04203L15.67 10.4563ZM5.88794 10.2204C5.49742 9.82986 4.86425 9.82986 4.47373 10.2204C4.0832 10.6109 4.0832 11.2441 4.47373 11.6346L5.88794 10.2204ZM6.24164 13.4025C6.63217 13.793 7.26533 13.793 7.65586 13.4025C8.04638 13.012 8.04638 12.3788 7.65586 11.9883L6.24164 13.4025ZM0.938726 15.5233C0.548202 15.9138 0.548202 16.547 0.938726 16.9375C1.32925 17.328 1.96242 17.328 2.35294 16.9375L0.938726 15.5233ZM5.00419 14.2863C5.39471 13.8957 5.39471 13.2626 5.00419 12.872C4.61367 12.4815 3.9805 12.4815 3.58998 12.872L5.00419 14.2863ZM11.5449 4.91715C11.1544 5.30773 11.1545 5.94089 11.5451 6.33136C11.9357 6.72183 12.5688 6.72174 12.9593 6.33116L11.5449 4.91715ZM14.4318 4.85825C14.8223 4.46767 14.8222 3.8345 14.4316 3.44403C14.041 3.05356 13.4078 3.05365 13.0174 3.44423L14.4318 4.85825ZM14.1962 7.56873L6.24162 15.5237L7.65587 16.9379L15.6105 8.98291L14.1962 7.56873ZM7.65586 15.5237L2.35252 10.2204L0.938309 11.6346L6.24164 16.9379L7.65586 15.5237ZM2.35254 11.6346L10.3071 3.67958L8.89287 2.2654L0.938291 10.2204L2.35254 11.6346ZM7.41999 2.2067L15.67 10.4563L17.0842 9.04203L8.83417 0.792448L7.41999 2.2067ZM4.47373 11.6346L6.24164 13.4025L7.65586 11.9883L5.88794 10.2204L4.47373 11.6346ZM2.35294 16.9375L5.00419 14.2863L3.58998 12.872L0.938726 15.5233L2.35294 16.9375ZM12.9593 6.33116L14.4318 4.85825L13.0174 3.44423L11.5449 4.91715L12.9593 6.33116Z" fill="black"/>
</svg>
