<svg width="20" height="16" viewBox="0 0 20 16" fill="none" xmlns="http://www.w3.org/2000/svg">
<path d="M16.6667 5.91665V3.99998C16.6667 3.06656 16.6667 2.59985 16.485 2.24333C16.3252 1.92973 16.0703 1.67476 15.7567 1.51497C15.4001 1.33332 14.9334 1.33331 14 1.33331H4.33334C3.39991 1.33331 2.9332 1.33331 2.57668 1.51497C2.26308 1.67476 2.00811 1.92973 1.84832 2.24333C1.66667 2.59985 1.66667 3.06656 1.66667 3.99998V12C1.66667 12.9334 1.66667 13.4001 1.84832 13.7566C2.00811 14.0702 2.26308 14.3252 2.57668 14.485C2.9332 14.6666 3.39991 14.6666 4.33333 14.6666L14 14.6666C14.9334 14.6666 15.4001 14.6666 15.7567 14.485C16.0703 14.3252 16.3252 14.0702 16.485 13.7566C16.6667 13.4001 16.6667 12.9334 16.6667 12V10.0833M12.5 7.99998C12.5 7.61277 12.5 7.41916 12.532 7.25816C12.6635 6.59701 13.1804 6.08018 13.8415 5.94867C14.0025 5.91665 14.1961 5.91665 14.5833 5.91665H16.25C16.6372 5.91665 16.8308 5.91665 16.9918 5.94867C17.653 6.08018 18.1698 6.59701 18.3013 7.25816C18.3333 7.41916 18.3333 7.61277 18.3333 7.99998C18.3333 8.38719 18.3333 8.5808 18.3013 8.7418C18.1698 9.40295 17.653 9.91978 16.9918 10.0513C16.8308 10.0833 16.6372 10.0833 16.25 10.0833H14.5833C14.1961 10.0833 14.0025 10.0833 13.8415 10.0513C13.1804 9.91978 12.6635 9.40295 12.532 8.7418C12.5 8.5808 12.5 8.38719 12.5 7.99998Z" stroke="black" stroke-width="2" stroke-linecap="round" stroke-linejoin="round"/>
</svg>
