<svg width="10" height="6" viewBox="0 0 10 6" fill="none" xmlns="http://www.w3.org/2000/svg">
<path d="M0.345815 0.503855C0.268562 0.580949 0.207273 0.672523 0.165455 0.773335C0.123637 0.874146 0.102112 0.982214 0.102112 1.09135C0.102112 1.2005 0.123637 1.30856 0.165455 1.40938C0.207273 1.51019 0.268562 1.60176 0.345815 1.67885L4.17082 5.50385C4.24791 5.58111 4.33948 5.6424 4.4403 5.68422C4.54111 5.72603 4.64918 5.74756 4.75832 5.74756C4.86746 5.74756 4.97552 5.72603 5.07634 5.68422C5.17715 5.6424 5.26872 5.58111 5.34582 5.50385L9.17082 1.67885C9.24797 1.6017 9.30917 1.51011 9.35092 1.40931C9.39268 1.3085 9.41417 1.20046 9.41417 1.09135C9.41417 0.982246 9.39268 0.874205 9.35092 0.773402C9.30917 0.672598 9.24797 0.581006 9.17082 0.503854C9.09366 0.426703 9.00207 0.365503 8.90127 0.323749C8.80047 0.281995 8.69242 0.260504 8.58331 0.260504C8.47421 0.260504 8.36617 0.281995 8.26536 0.323749C8.16456 0.365503 8.07297 0.426703 7.99582 0.503854L4.75415 3.73719L1.52082 0.503855C1.19582 0.178855 0.662482 0.187188 0.345815 0.503855Z" fill="black"/>
</svg>
